<svg xmlns="http://www.w3.org/2000/svg" viewBox="0 0 64 64" width="64" height="64" role="img" aria-label="vivMorph">
  <title>vivMorph</title>
  <defs>
    <linearGradient id="vm" x1="0" y1="0" x2="1" y2="1">
      <stop offset="0%" stop-color="#f0a04b"/>
      <stop offset="52%" stop-color="#e8722f"/>
      <stop offset="100%" stop-color="#1f9e8a"/>
    </linearGradient>
  </defs>
  <path fill="url(#vm)" d="M26 6a20 20 0 1 0 0 40 20 20 0 0 0 0-40Zm0 11a9 9 0 1 1 0 18 9 9 0 0 1 0-18Z"/>
  <path fill="url(#vm)" d="M40 14h14a6 6 0 0 1 6 6v22a6 6 0 0 1-6 6H40a4 4 0 0 1-4-4V18a4 4 0 0 1 4-4Zm5 9a3 3 0 0 0-3 3v10a3 3 0 0 0 3 3h5a3 3 0 0 0 3-3V26a3 3 0 0 0-3-3h-5Z" opacity="0.92"/>
</svg>
